#!OML:ASF F:\VICON\USERDATA\INSTALL\rory3\rory3.ASF
:FULLY-SPECIFIED
:DEGREES
417
root 0.305443 17.952 49.4701 -3.60164 -0.320578 -4.91218
lowerback 8.61639 -1.58807 2.18228
upperback -0.0682347 -1.73654 3.20447
thorax -4.87352 -0.873232 2.33118
lowerneck -15.3555 -2.80873 -3.30451
upperneck 23.0363 -3.63426 2.10205
head 9.95903 -1.73466 0.815315
rclavicle -2.86209e-014 5.56597e-015
rhumerus -36.31 -26.1061 -72.3212
rradius 20.2013
rwrist 11.0518
rhand -17.7335 23.4856
rfingers 7.12502
rthumb 8.52756 -6.32217
lclavicle -2.86209e-014 5.56597e-015
lhumerus -26.5306 -3.29627 84.9712
lradius 30.3288
lwrist 8.94493
lhand -30.5582 16.5003
lfingers 7.12502
lthumb -3.8565 46.4451
rfemur -16.6993 3.5609 30.0293
rtibia 29.6171
rfoot -8.12567 -4.53924
rtoes 12.5109
lfemur -4.72226 0.596155 -14.6529
ltibia 64.7801
lfoot 10.1326 -12.8207
ltoes -0.181334
418
root 0.313316 17.9662 49.6214 -3.45727 0.0189626 -4.42138
lowerback 8.09798 -1.60149 1.93986
upperback 0.412941 -1.82718 2.98977
thorax -4.07701 -0.916189 2.22204
lowerneck -16.4017 -2.79129 -3.14716
upperneck 22.9246 -3.58823 2.00944
head 10.1112 -1.70042 0.75019
rclavicle -2.20278e-014 2.54444e-014
rhumerus -34.674 -26.1335 -73.204
rradius 20.2701
rwrist 10.9972
rhand -17.5691 23.8324
rfingers 7.12502
rthumb 8.68617 -5.96886
lclavicle -2.20278e-014 2.54444e-014
lhumerus -25.694 -3.00497 85.0258
lradius 29.8137
lwrist 8.99278
lhand -30.6154 16.3678
lfingers 7.12502
lthumb -3.91178 46.3116
rfemur -16.2314 2.84017 29.4696
rtibia 29.589
rfoot -8.66962 -4.08903
rtoes 12.2771
lfemur -6.14512 0.536718 -15.3448
ltibia 65.9057
lfoot 8.39985 -11.649
ltoes -2.33823
419
root 0.286184 17.9844 49.7876 -3.39802 -0.282372 -4.51945
lowerback 8.73045 -1.41508 1.82199
upperback 0.0340737 -1.54938 3.04237
thorax -4.82921 -0.773988 2.34143
lowerneck -16.5661 -2.74834 -3.00021
upperneck 23.5026 -3.51072 1.75383
head 10.3409 -1.68004 0.642937
rclavicle -3.55328e-015 5.56597e-015
rhumerus -34.784 -25.3279 -73.4676
rradius 20.774
rwrist 10.6652
rhand -17.1454 25.1203
rfingers 7.12502
rthumb 9.09501 -4.66359
lclavicle -3.55328e-015 5.56597e-015
lhumerus -26.4168 -2.0805 85.0237
lradius 29.4846
lwrist 8.23445
lhand -31.2552 15.6347
lfingers 7.12502
lthumb -4.52961 45.5662
rfemur -15.7249 3.43842 29.7509
rtibia 29.608
rfoot -9.0346 -4.41329
rtoes 12.5072
lfemur -7.50324 1.07333 -15.0518
ltibia 66.886
lfoot 7.37909 -10.933
ltoes -0.547746
420
root 0.284775 18.009 49.9447 -3.37711 -0.113322 -4.38347
lowerback 9.28144 -1.38953 1.92464
upperback -0.386068 -1.47609 2.88402
thorax -5.58908 -0.740538 2.13754
lowerneck -16.208 -2.82857 -3.1028
upperneck 23.811 -3.63557 1.83301
head 10.3916 -1.7399 0.674639
rclavicle 3.06486e-015 4.37326e-015
rhumerus -35.0818 -24.4036 -73.7205
rradius 21.1261
rwrist 10.112
rhand -16.8891 25.9792
rfingers 7.12502
rthumb 9.34231 -3.79374
lclavicle 3.06486e-015 4.37326e-015
lhumerus -27.3167 -1.02949 84.8333
lradius 29.3874
lwrist 7.22811
lhand -30.1322 16.2631
lfingers 7.12502
lthumb -3.44512 46.215
rfemur -15.1436 3.12645 29.6248
rtibia 29.6034
rfoot -9.52385 -4.30887
rtoes 12.7798
lfemur -8.75773 1.09725 -15.2748
ltibia 67.6103
lfoot 6.64484 -10.3648
ltoes -0.485775
